<?xml version="1.0" standalone="no"?>
<!DOCTYPE svg PUBLIC "-//W3C//DTD SVG 20010904//EN"
 "http://www.w3.org/TR/2001/REC-SVG-20010904/DTD/svg10.dtd">
<svg version="1.0" xmlns="http://www.w3.org/2000/svg"
 width="104.000000pt" height="38.000000pt" viewBox="0 0 104.000000 38.000000"
 preserveAspectRatio="xMidYMid meet">

<g transform="translate(0.000000,38.000000) scale(0.100000,-0.100000)"
fill="#000000" stroke="none">
<path d="M82 318 c-17 -17 -17 -239 0 -256 13 -13 92 -17 86 -4 -1 4 -23 40
-48 81 l-44 74 38 33 c47 41 99 66 120 58 28 -11 32 -55 7 -75 -12 -10 -27
-19 -33 -21 -7 -3 -12 -17 -10 -31 2 -32 -13 -35 -28 -7 -13 25 -1 51 34 70
14 7 26 17 26 21 0 20 -21 15 -69 -17 l-52 -35 22 -37 c50 -82 81 -122 94
-122 19 0 19 2 -7 46 l-22 37 32 28 c34 30 70 37 90 17 21 -21 13 -48 -20 -68
-41 -25 -58 -14 -22 15 33 26 26 50 -11 33 -35 -16 -38 -34 -12 -73 23 -37 61
-47 85 -23 15 15 16 221 2 249 -10 17 -22 19 -128 19 -79 0 -122 -4 -130 -12z"/>
<path d="M380 191 c0 -44 3 -86 6 -95 10 -25 24 -8 24 29 0 29 4 34 27 37 39
4 42 28 4 28 -28 0 -31 3 -31 30 0 28 2 30 40 30 22 0 40 5 40 10 0 6 -25 10
-55 10 l-55 0 0 -79z"/>
<path d="M640 174 c0 -61 4 -93 10 -89 6 3 10 46 10 96 0 53 -4 89 -10 89 -6
0 -10 -39 -10 -96z"/>
<path d="M755 261 c-6 -11 9 -23 19 -14 9 9 7 23 -3 23 -6 0 -12 -4 -16 -9z"/>
<path d="M485 209 c-4 -6 -4 -30 0 -55 8 -54 44 -85 76 -66 12 8 20 8 24 2 14
-23 25 5 25 66 0 50 -3 64 -15 64 -11 0 -15 -12 -15 -44 0 -86 -62 -89 -68 -2
-3 44 -13 58 -27 35z"/>
<path d="M752 153 c4 -86 22 -85 26 2 2 54 0 65 -13 65 -13 0 -15 -11 -13 -67z"/>
<path d="M820 200 c-41 -41 -7 -120 52 -120 24 0 68 44 68 68 0 59 -79 93
-120 52z m80 -25 c15 -18 10 -45 -12 -59 -33 -20 -69 20 -54 60 7 18 50 18 66
-1z"/>
<path d="M692 99 c2 -6 8 -10 13 -10 5 0 11 4 13 10 2 6 -4 11 -13 11 -9 0
-15 -5 -13 -11z"/>
</g>
</svg>
